<svg width="36" height="37" viewBox="0 0 36 37" fill="none" xmlns="http://www.w3.org/2000/svg">
<path d="M21.0929 5.01087C21.0929 5.83116 20.767 6.61785 20.187 7.19788C19.6069 7.77792 18.8203 8.10377 18 8.10377C17.1797 8.10377 16.393 7.77792 15.813 7.19788C15.2329 6.61785 14.9071 5.83116 14.9071 5.01087C14.9071 4.19058 15.2329 3.40389 15.813 2.82386C16.393 2.24383 17.1797 1.91797 18 1.91797C18.8203 1.91797 19.6069 2.24383 20.187 2.82386C20.767 3.40389 21.0929 4.19058 21.0929 5.01087ZM13.8761 13.2586L4.52522 12.3472C4.2484 12.3131 3.99505 12.1745 3.8169 11.9599C3.63875 11.7453 3.54921 11.4708 3.56658 11.1924C3.58394 10.914 3.7069 10.6528 3.91034 10.462C4.11379 10.2712 4.38239 10.1652 4.66131 10.1657H31.3407C31.6196 10.1652 31.8882 10.2712 32.0916 10.462C32.2951 10.6528 32.418 10.914 32.4354 11.1924C32.4528 11.4708 32.3632 11.7453 32.1851 11.9599C32.0069 12.1745 31.7536 12.3131 31.4768 12.3472L22.1238 13.2586V20.4754L23.0558 33.713C23.0816 33.9908 23.0011 34.268 22.8307 34.4888C22.6603 34.7097 22.4125 34.8577 22.1373 34.9032C21.862 34.9487 21.5798 34.8882 21.3474 34.7339C21.1149 34.5797 20.9496 34.3431 20.8846 34.0718L18.501 22.4755C18.3691 21.9559 17.6309 21.9559 17.4989 22.4755L15.1153 34.0718C15.0503 34.3431 14.885 34.5797 14.6526 34.7339C14.4201 34.8882 14.1379 34.9487 13.8627 34.9032C13.5875 34.8577 13.3397 34.7097 13.1692 34.4888C12.9988 34.268 12.9184 33.9908 12.9441 33.713L13.8761 20.4754V13.2586Z" fill="black" fill-opacity="0.8"/>
</svg>
