<svg width="36" height="37" viewBox="0 0 36 37" fill="none" xmlns="http://www.w3.org/2000/svg">
<path d="M14.7 25.018H21.3C21.7675 25.018 22.1596 24.8596 22.4764 24.5428C22.7932 24.226 22.9511 23.8344 22.95 23.368V20.068H19.65V21.718H16.35V15.118H19.65V16.768H22.95V13.468C22.95 13.0005 22.7916 12.6089 22.4748 12.2932C22.158 11.9775 21.7664 11.8191 21.3 11.818H14.7C14.2325 11.818 13.8409 11.9764 13.5252 12.2932C13.2095 12.61 13.0511 13.0016 13.05 13.468V23.368C13.05 23.8355 13.2084 24.2276 13.5252 24.5444C13.842 24.8612 14.2336 25.0191 14.7 25.018ZM18 34.9179C15.7175 34.9179 13.5725 34.4845 11.565 33.6177C9.5575 32.7509 7.81125 31.5756 6.32625 30.0917C4.84125 28.6078 3.6659 26.8615 2.8002 24.853C1.9345 22.8444 1.5011 20.6994 1.5 18.418C1.4989 16.1366 1.9323 13.9916 2.8002 11.983C3.6681 9.97436 4.84345 8.22811 6.32625 6.74422C7.80905 5.26032 9.5553 4.08497 11.565 3.21817C13.5747 2.35137 15.7197 1.91797 18 1.91797C20.2803 1.91797 22.4253 2.35137 24.435 3.21817C26.4447 4.08497 28.1909 5.26032 29.6737 6.74422C31.1565 8.22811 32.3324 9.97436 33.2014 11.983C34.0704 13.9916 34.5033 16.1366 34.5 18.418C34.4967 20.6994 34.0633 22.8444 33.1998 24.853C32.3363 26.8615 31.1609 28.6078 29.6737 30.0917C28.1865 31.5756 26.4403 32.7515 24.435 33.6194C22.4297 34.4873 20.2847 34.9201 18 34.9179ZM18 31.6179C21.685 31.6179 24.8062 30.3392 27.3637 27.7817C29.9212 25.2242 31.2 22.103 31.2 18.418C31.2 14.733 29.9212 11.6117 27.3637 9.05421C24.8062 6.49672 21.685 5.21797 18 5.21797C14.315 5.21797 11.1937 6.49672 8.63625 9.05421C6.07875 11.6117 4.8 14.733 4.8 18.418C4.8 22.103 6.07875 25.2242 8.63625 27.7817C11.1937 30.3392 14.315 31.6179 18 31.6179Z" fill="black" fill-opacity="0.8"/>
</svg>
