<svg width="36" height="37" viewBox="0 0 36 37" fill="none" xmlns="http://www.w3.org/2000/svg">
<path fill-rule="evenodd" clip-rule="evenodd" d="M16.2332 2.77442C16.4438 2.50746 16.7123 2.29171 17.0183 2.14337C17.3243 1.99503 17.66 1.91797 18.0001 1.91797C18.3401 1.91797 18.6758 1.99503 18.9818 2.14337C19.2879 2.29171 19.5563 2.50746 19.767 2.77442L29.6752 15.3311C30.0931 15.8607 30.3204 16.5157 30.3204 17.1903C30.3204 17.865 30.0931 18.5199 29.6752 19.0495L19.767 31.6062C19.5563 31.8735 19.2878 32.0895 18.9816 32.238C18.6755 32.3865 18.3396 32.4636 17.9993 32.4636C17.659 32.4636 17.3232 32.3865 17.017 32.238C16.7108 32.0895 16.4423 31.8735 16.2317 31.6062L6.32494 19.051C5.907 18.5214 5.67969 17.8665 5.67969 17.1918C5.67969 16.5172 5.907 15.8622 6.32494 15.3326L16.2332 2.77592V2.77442Z" fill="black" fill-opacity="0.8"/>
</svg>
