<svg width="36" height="37" viewBox="0 0 36 37" fill="none" xmlns="http://www.w3.org/2000/svg">
<path d="M11.07 1.91797H24.93C30.21 1.91797 34.5 6.20797 34.5 11.488V25.348C34.5 27.8861 33.4917 30.3203 31.697 32.115C29.9023 33.9097 27.4681 34.918 24.93 34.918H11.07C5.79 34.918 1.5 30.628 1.5 25.348V11.488C1.5 8.94985 2.50827 6.51568 4.30299 4.72096C6.09771 2.92623 8.53188 1.91797 11.07 1.91797ZM10.74 5.21797C9.16461 5.21797 7.65375 5.84379 6.53979 6.95775C5.42582 8.07172 4.8 9.58258 4.8 11.158V25.678C4.8 28.9615 7.4565 31.618 10.74 31.618H25.26C26.8354 31.618 28.3462 30.9921 29.4602 29.8782C30.5742 28.7642 31.2 27.2534 31.2 25.678V11.158C31.2 7.87447 28.5435 5.21797 25.26 5.21797H10.74ZM26.6625 7.69297C27.2095 7.69297 27.7341 7.91027 28.1209 8.29706C28.5077 8.68385 28.725 9.20846 28.725 9.75547C28.725 10.3025 28.5077 10.8271 28.1209 11.2139C27.7341 11.6007 27.2095 11.818 26.6625 11.818C26.1155 11.818 25.5909 11.6007 25.2041 11.2139C24.8173 10.8271 24.6 10.3025 24.6 9.75547C24.6 9.20846 24.8173 8.68385 25.2041 8.29706C25.5909 7.91027 26.1155 7.69297 26.6625 7.69297ZM18 10.168C20.188 10.168 22.2865 11.0372 23.8336 12.5843C25.3808 14.1315 26.25 16.2299 26.25 18.418C26.25 20.606 25.3808 22.7044 23.8336 24.2516C22.2865 25.7988 20.188 26.668 18 26.668C15.812 26.668 13.7135 25.7988 12.1664 24.2516C10.6192 22.7044 9.75 20.606 9.75 18.418C9.75 16.2299 10.6192 14.1315 12.1664 12.5843C13.7135 11.0372 15.812 10.168 18 10.168ZM18 13.468C16.6872 13.468 15.4281 13.9895 14.4998 14.9178C13.5715 15.8461 13.05 17.1051 13.05 18.418C13.05 19.7308 13.5715 20.9898 14.4998 21.9181C15.4281 22.8465 16.6872 23.368 18 23.368C19.3128 23.368 20.5719 22.8465 21.5002 21.9181C22.4285 20.9898 22.95 19.7308 22.95 18.418C22.95 17.1051 22.4285 15.8461 21.5002 14.9178C20.5719 13.9895 19.3128 13.468 18 13.468Z" fill="black" fill-opacity="0.8"/>
</svg>
