<svg width="36" height="37" viewBox="0 0 36 37" fill="none" xmlns="http://www.w3.org/2000/svg">
<path d="M30.8333 1.91797C31.8058 1.91797 32.7384 2.30428 33.4261 2.99191C34.1137 3.67954 34.5 4.61217 34.5 5.58464V31.2513C34.5 32.2238 34.1137 33.1564 33.4261 33.844C32.7384 34.5317 31.8058 34.918 30.8333 34.918H5.16667C4.19421 34.918 3.26157 34.5317 2.57394 33.844C1.88631 33.1564 1.5 32.2238 1.5 31.2513V5.58464C1.5 4.61217 1.88631 3.67954 2.57394 2.99191C3.26157 2.30428 4.19421 1.91797 5.16667 1.91797H30.8333ZM29.9167 30.3346V20.618C29.9167 19.0329 29.287 17.5127 28.1661 16.3918C27.0453 15.271 25.5251 14.6413 23.94 14.6413C22.3817 14.6413 20.5667 15.5946 19.6867 17.0246V14.9896H14.5717V30.3346H19.6867V21.2963C19.6867 19.8846 20.8233 18.7296 22.235 18.7296C22.9157 18.7296 23.5686 19.0001 24.0499 19.4814C24.5313 19.9627 24.8017 20.6156 24.8017 21.2963V30.3346H29.9167ZM8.61333 12.1113C9.4302 12.1113 10.2136 11.7868 10.7912 11.2092C11.3688 10.6316 11.6933 9.84817 11.6933 9.0313C11.6933 7.3263 10.3183 5.93297 8.61333 5.93297C7.7916 5.93297 7.00353 6.2594 6.42248 6.84045C5.84143 7.4215 5.515 8.20957 5.515 9.0313C5.515 10.7363 6.90833 12.1113 8.61333 12.1113ZM11.1617 30.3346V14.9896H6.08333V30.3346H11.1617Z" fill="black" fill-opacity="0.8"/>
</svg>
