<svg width="36" height="37" viewBox="0 0 36 37" fill="none" xmlns="http://www.w3.org/2000/svg">
<path d="M18.0051 17.593C16.9111 17.593 15.8618 17.1584 15.0883 16.3848C14.3147 15.6112 13.8801 14.562 13.8801 13.468C13.8801 12.374 14.3147 11.3247 15.0883 10.5512C15.8618 9.77757 16.9111 9.34297 18.0051 9.34297C19.0991 9.34297 20.1483 9.77757 20.9219 10.5512C21.6955 11.3247 22.1301 12.374 22.1301 13.468C22.1301 14.0097 22.0234 14.5461 21.8161 15.0465C21.6088 15.547 21.3049 16.0017 20.9219 16.3848C20.5389 16.7678 20.0841 17.0717 19.5836 17.279C19.0832 17.4863 18.5468 17.593 18.0051 17.593ZM18.0051 1.91797C14.9418 1.91797 12.004 3.13484 9.83799 5.30089C7.67195 7.46693 6.45508 10.4047 6.45508 13.468C6.45508 22.1305 18.0051 34.918 18.0051 34.918C18.0051 34.918 29.5551 22.1305 29.5551 13.468C29.5551 10.4047 28.3382 7.46693 26.1722 5.30089C24.0061 3.13484 21.0683 1.91797 18.0051 1.91797Z" fill="black" fill-opacity="0.8"/>
</svg>
