<svg width="36" height="37" viewBox="0 0 36 37" fill="none" xmlns="http://www.w3.org/2000/svg">
<path d="M10.1842 17.5495H17.1316V10.6022H18.8684V17.5495H25.8158V19.2864H18.8684V26.2338H17.1316V19.2864H10.1842V17.5495ZM18 1.91797C22.3761 1.91797 26.5729 3.65636 29.6673 6.75071C32.7616 9.84506 34.5 14.0419 34.5 18.418C34.5 22.794 32.7616 26.9909 29.6673 30.0852C26.5729 33.1796 22.3761 34.918 18 34.918C13.6239 34.918 9.42709 33.1796 6.33274 30.0852C3.23839 26.9909 1.5 22.794 1.5 18.418C1.5 14.0419 3.23839 9.84506 6.33274 6.75071C9.42709 3.65636 13.6239 1.91797 18 1.91797ZM18 3.65481C14.0846 3.65481 10.3295 5.21021 7.56087 7.97884C4.79224 10.7475 3.23684 14.5025 3.23684 18.418C3.23684 22.3334 4.79224 26.0885 7.56087 28.8571C10.3295 31.6257 14.0846 33.1811 18 33.1811C19.9387 33.1811 21.8585 32.7993 23.6496 32.0573C25.4408 31.3154 27.0682 30.228 28.4391 28.8571C29.81 27.4862 30.8975 25.8587 31.6394 24.0676C32.3813 22.2764 32.7632 20.3567 32.7632 18.418C32.7632 14.5025 31.2078 10.7475 28.4391 7.97884C25.6705 5.21021 21.9154 3.65481 18 3.65481Z" fill="black" fill-opacity="0.8"/>
</svg>
