<svg width="36" height="37" viewBox="0 0 36 37" fill="none" xmlns="http://www.w3.org/2000/svg">
<path d="M14.0585 1.91797C17.3893 1.91797 20.5836 3.24032 22.9388 5.59413C25.294 7.94794 26.6171 11.1404 26.6171 14.4692C26.6171 17.5973 25.4772 20.4551 23.5837 22.6371L34.5 33.547L33.1282 34.918L22.2119 24.0081C19.9422 25.9547 17.0494 27.0234 14.0585 27.0204C10.7278 27.0204 7.5335 25.698 5.17831 23.3442C2.82313 20.9904 1.5 17.798 1.5 14.4692C1.5 11.1404 2.82313 7.94794 5.17831 5.59413C7.5335 3.24032 10.7278 1.91797 14.0585 1.91797ZM14.0585 3.84892C11.2402 3.84892 8.53735 4.96784 6.5445 6.95952C4.55166 8.9512 3.43208 11.6525 3.43208 14.4692C3.43208 17.2858 4.55166 19.9871 6.5445 21.9788C8.53735 23.9705 11.2402 25.0894 14.0585 25.0894C15.454 25.0894 16.8359 24.8147 18.1251 24.281C19.4144 23.7473 20.5858 22.965 21.5726 21.9788C22.5594 20.9926 23.3421 19.8219 23.8761 18.5334C24.4101 17.2449 24.685 15.8638 24.685 14.4692C24.685 13.0745 24.4101 11.6935 23.8761 10.405C23.3421 9.11647 22.5594 7.9457 21.5726 6.95952C20.5858 5.97334 19.4144 5.19106 18.1251 4.65734C16.8359 4.12362 15.454 3.84892 14.0585 3.84892Z" fill="black" fill-opacity="0.8"/>
</svg>
