<svg width="36" height="37" viewBox="0 0 36 37" fill="none" xmlns="http://www.w3.org/2000/svg">
<path fill-rule="evenodd" clip-rule="evenodd" d="M30.0249 10.3205C30.2512 10.0945 30.5581 9.96746 30.878 9.96746C31.198 9.96746 31.5048 10.0945 31.7312 10.3205L31.7344 10.3238L31.7393 10.327L31.7505 10.3383L31.7827 10.3705L31.8825 10.4815C31.963 10.5733 32.0757 10.7037 32.2061 10.8695C33.6935 12.8027 34.5 15.1735 34.5 17.6127C34.5 20.052 33.6935 22.4227 32.2061 24.356C32.0713 24.5281 31.9295 24.6945 31.7811 24.855L31.7489 24.8872L31.7393 24.8985L31.7344 24.9017L31.7328 24.9033L30.9119 24.0856L31.7328 24.9065C31.5063 25.133 31.1992 25.2603 30.8789 25.2603C30.5585 25.2603 30.2514 25.133 30.0249 24.9065C29.7984 24.6801 29.6712 24.3729 29.6712 24.0526C29.6712 23.7323 29.7984 23.4251 30.0249 23.1986L30.0233 23.2002L30.02 23.2018L30.0281 23.1938L30.0812 23.1358C30.1327 23.08 30.2073 22.9904 30.305 22.867C31.3234 21.5375 31.9336 19.9409 32.0617 18.2711C32.1897 16.6014 31.8299 14.9303 31.0261 13.4612C30.8163 13.0745 30.5751 12.7057 30.305 12.3585C30.2176 12.2455 30.1252 12.1365 30.0281 12.0317L30.02 12.0237C29.7956 11.7968 29.6701 11.4903 29.671 11.1711C29.6719 10.852 29.7991 10.5461 30.0249 10.3205ZM20.4742 4.56728C22.3463 3.3326 24.8415 4.67674 24.8415 6.91913V29.9161C24.8415 32.1601 22.3463 33.5026 20.4742 32.268L10.8157 25.9014C10.7503 25.8578 10.6737 25.8343 10.5951 25.8338H5.92683C4.75276 25.8338 3.62678 25.3674 2.79659 24.5372C1.9664 23.707 1.5 22.581 1.5 21.4069V15.4283C1.5 14.2542 1.9664 13.1283 2.79659 12.2981C3.62678 11.4679 4.75276 11.0015 5.92683 11.0015H10.5951C10.674 11.0017 10.7513 10.9788 10.8173 10.9355L20.4742 4.56728Z" fill="black" fill-opacity="0.8"/>
</svg>
