<svg width="36" height="37" viewBox="0 0 36 37" fill="none" xmlns="http://www.w3.org/2000/svg">
<path fill-rule="evenodd" clip-rule="evenodd" d="M26.4059 14.5363C26.6218 14.3207 26.9145 14.1995 27.2197 14.1995C27.5249 14.1995 27.8176 14.3207 28.0335 14.5363L30.2907 16.7935L32.5479 14.5363C32.7662 14.3329 33.055 14.2222 33.3533 14.2274C33.6517 14.2327 33.9363 14.3536 34.1473 14.5646C34.3583 14.7756 34.4792 15.0602 34.4845 15.3586C34.4897 15.6569 34.379 15.9457 34.1756 16.164L31.9199 18.4212L34.1771 20.6784C34.3868 20.8957 34.5027 21.1866 34.5 21.4886C34.4972 21.7905 34.3759 22.0793 34.1623 22.2927C33.9487 22.5062 33.6598 22.6271 33.3578 22.6296C33.0559 22.6321 32.765 22.5159 32.5479 22.306L30.2907 20.0488L28.0335 22.306C27.8152 22.5094 27.5265 22.6202 27.2281 22.6149C26.9298 22.6096 26.6451 22.4888 26.4341 22.2778C26.2231 22.0668 26.1023 21.7821 26.097 21.4838C26.0917 21.1854 26.2025 20.8967 26.4059 20.6784L28.6631 18.4212L26.4059 16.164C26.1902 15.948 26.0691 15.6553 26.0691 15.3502C26.0691 15.045 26.1902 14.7523 26.4059 14.5363ZM19.599 5.20968C21.3848 4.03195 23.7648 5.31409 23.7648 7.45305V29.3893C23.7648 31.5298 21.3848 32.8104 19.599 31.6327L10.386 25.5597C10.3236 25.5182 10.2505 25.4958 10.1756 25.4952H5.72264C4.60273 25.4952 3.52868 25.0504 2.73678 24.2585C1.94488 23.4666 1.5 22.3925 1.5 21.2726V15.5697C1.5 14.4498 1.94488 13.3758 2.73678 12.5839C3.52868 11.792 4.60273 11.3471 5.72264 11.3471H10.1756C10.2509 11.3473 10.3246 11.3254 10.3875 11.2841L19.599 5.20968Z" fill="black" fill-opacity="0.8"/>
</svg>
