<svg width="36" height="37" viewBox="0 0 36 37" fill="none" xmlns="http://www.w3.org/2000/svg">
<path fill-rule="evenodd" clip-rule="evenodd" d="M18.7199 1.94548C20.5211 1.91797 22.3085 1.9317 24.0959 1.91797C24.2059 4.02172 24.9622 6.16668 26.502 7.65164C28.042 9.17788 30.2144 9.87913 32.3318 10.1129V15.6541C30.3519 15.5853 28.3582 15.1728 26.5571 14.3203C25.7733 13.9628 25.0446 13.5091 24.3297 13.0416C24.3159 17.0565 24.3434 21.0715 24.3022 25.0727C24.1922 26.9976 23.5597 28.9089 22.446 30.4901C20.6448 33.1301 17.5237 34.8488 14.3201 34.9038C12.354 35.0138 10.3878 34.4775 8.71035 33.4876C5.93299 31.8514 3.98054 28.8539 3.69184 25.6364C3.66432 24.9489 3.65059 24.2614 3.67806 23.5877C3.92556 20.9752 5.218 18.4727 7.22543 16.7678C9.50779 14.7878 12.6977 13.8391 15.6813 14.4028C15.7088 16.4378 15.6263 18.4727 15.6263 20.5077C14.2651 20.0677 12.6702 20.1915 11.474 21.0165C10.6078 21.5802 9.94781 22.4464 9.60407 23.4227C9.31532 24.124 9.39782 24.8939 9.41156 25.6364C9.74156 27.8914 11.9139 29.7889 14.2239 29.5826C15.7638 29.5689 17.235 28.6751 18.0325 27.3689C18.2937 26.9151 18.5824 26.4476 18.5962 25.9114C18.7337 23.4502 18.6787 21.0027 18.6924 18.5415C18.7062 13.0003 18.6787 7.4729 18.7199 1.94548Z" fill="black" fill-opacity="0.8"/>
</svg>
