<svg width="36" height="37" viewBox="0 0 36 37" fill="none" xmlns="http://www.w3.org/2000/svg">
<path d="M18 1.91797C20.188 1.91797 22.2865 2.78716 23.8336 4.33434C25.3808 5.88151 26.25 7.97993 26.25 10.168C26.25 12.356 25.3808 14.4544 23.8336 16.0016C22.2865 17.5488 20.188 18.418 18 18.418C15.812 18.418 13.7135 17.5488 12.1664 16.0016C10.6192 14.4544 9.75 12.356 9.75 10.168C9.75 7.97993 10.6192 5.88151 12.1664 4.33434C13.7135 2.78716 15.812 1.91797 18 1.91797ZM18 22.543C27.1163 22.543 34.5 26.2348 34.5 30.793V34.918H1.5V30.793C1.5 26.2348 8.88375 22.543 18 22.543Z" fill="black" fill-opacity="0.8"/>
</svg>
