<svg width="17" height="16" viewBox="0 0 17 16" fill="none" xmlns="http://www.w3.org/2000/svg">
<path d="M2.88105 7.92403H7.05705V9.20803H2.88105V7.92403ZM3.00105 11.524H7.74105V12.832H1.44105V4.43203H7.57305V5.74003H3.00105V11.524ZM13.0921 6.35203C13.6041 6.35203 14.0601 6.45203 14.4601 6.65203C14.8681 6.85203 15.1881 7.16003 15.4201 7.57603C15.6521 7.98403 15.7681 8.51203 15.7681 9.16003V12.832H14.2681V9.35203C14.2681 8.78403 14.1321 8.36003 13.8601 8.08003C13.5961 7.80003 13.2241 7.66003 12.7441 7.66003C12.3921 7.66003 12.0801 7.73203 11.8081 7.87603C11.5361 8.02003 11.3241 8.23603 11.1721 8.52403C11.0281 8.80403 10.9561 9.16003 10.9561 9.59203V12.832H9.45611V6.42403H10.8841V8.15203L10.6321 7.62403C10.8561 7.21603 11.1801 6.90403 11.6041 6.68803C12.0361 6.46403 12.5321 6.35203 13.0921 6.35203Z" fill="black" fill-opacity="0.6"/>
</svg>
