<svg width="16" height="16" viewBox="0 0 16 16" fill="none" xmlns="http://www.w3.org/2000/svg">
<path d="M3.6745 7.92403H7.8505V9.20803H3.6745V7.92403ZM3.7945 11.524H8.5345V12.832H2.2345V4.43203H8.3665V5.74003H3.7945V11.524ZM12.171 12.916C11.635 12.916 11.119 12.848 10.623 12.712C10.135 12.568 9.74697 12.396 9.45897 12.196L10.035 11.056C10.323 11.24 10.667 11.392 11.067 11.512C11.467 11.632 11.867 11.692 12.267 11.692C12.739 11.692 13.079 11.628 13.287 11.5C13.503 11.372 13.611 11.2 13.611 10.984C13.611 10.808 13.539 10.676 13.395 10.588C13.251 10.492 13.063 10.42 12.831 10.372C12.599 10.324 12.339 10.28 12.051 10.24C11.771 10.2 11.487 10.148 11.199 10.084C10.919 10.012 10.663 9.91203 10.431 9.78403C10.199 9.64803 10.011 9.46803 9.86697 9.24403C9.72297 9.02003 9.65097 8.72403 9.65097 8.35603C9.65097 7.94803 9.76697 7.59603 9.99897 7.30003C10.231 6.99603 10.555 6.76403 10.971 6.60403C11.395 6.43603 11.895 6.35203 12.471 6.35203C12.903 6.35203 13.339 6.40003 13.779 6.49603C14.219 6.59203 14.583 6.72803 14.871 6.90403L14.295 8.04403C13.991 7.86003 13.683 7.73603 13.371 7.67203C13.067 7.60003 12.763 7.56403 12.459 7.56403C12.003 7.56403 11.663 7.63203 11.439 7.76803C11.223 7.90403 11.115 8.07603 11.115 8.28403C11.115 8.47603 11.187 8.62003 11.331 8.71603C11.475 8.81203 11.663 8.88803 11.895 8.94403C12.127 9.00003 12.383 9.04803 12.663 9.08803C12.951 9.12003 13.235 9.17203 13.515 9.24403C13.795 9.31603 14.051 9.41603 14.283 9.54403C14.523 9.66403 14.715 9.83603 14.859 10.06C15.003 10.284 15.075 10.576 15.075 10.936C15.075 11.336 14.955 11.684 14.715 11.98C14.483 12.276 14.151 12.508 13.719 12.676C13.287 12.836 12.771 12.916 12.171 12.916Z" fill="black" fill-opacity="0.6"/>
</svg>
